#N canvas 453 134 611 540 12;
#X obj 220 290 bng 15 250 50 0 empty empty empty 17 7 0 10 #fcfcfc
#000000 #000000;
#X floatatom 200 180 5 20 300 0 - - - 0;
#X floatatom 250 180 5 2 12 0 - - - 0;
#X obj 140 230 metronome~;
#X obj 200 100 loadbang;
#X floatatom 270 290 5 0 0 0 - - - 0;
#X msg 200 150 120;
#X msg 250 150 4;
#X obj 160 400 dac~;
#X connect 1 0 3 1;
#X connect 2 0 3 2;
#X connect 3 0 8 0;
#X connect 3 0 8 1;
#X connect 3 1 0 0;
#X connect 3 1 5 0;
#X connect 4 0 6 0;
#X connect 4 0 7 0;
#X connect 6 0 1 0;
#X connect 7 0 2 0;
