#N canvas 1055 25 450 300 12;
#X obj 20 270 dac~;
#X obj 20 10 adc~;
#X obj 20 50 volgui~;
#X obj 119 50 volgui~;
#X connect 1 0 2 0;
#X connect 1 0 3 0;
#X connect 1 1 2 1;
#X connect 1 1 3 1;
#X connect 2 0 0 0;
#X connect 2 1 0 0;
#X connect 3 0 0 1;
#X connect 3 1 0 1;
