#N canvas 969 223 450 446 12;
#N canvas 1434 221 450 325 random-note 1;
#X obj 10 10 inlet;
#X obj 10 270 outlet;
#X obj 10 40 randnote;
#X obj 10 80 pitch;
#X connect 0 0 2 0;
#X connect 2 0 3 0;
#X connect 2 1 3 1;
#X connect 2 2 3 2;
#X connect 3 0 1 0;
#X restore 80 80 pd random-note;
#N canvas 958 630 450 350 random-interval 1;
#X obj 10 10 inlet;
#X obj 10 270 outlet;
#X restore 200 80 pd random-interval;
#N canvas 1433 616 450 350 dyad 1;
#X obj 10 10 inlet;
#X obj 10 270 outlet;
#X obj 60 10 inlet;
#X obj 60 80 any;
#X connect 2 0 3 1;
#X restore 170 140 pd dyad;
#X obj 180 30 bng 15 250 50 0 empty empty empty 17 7 0 10 #fcfcfc #000000
#000000;
#X obj 30 290 midipitch;
#X obj 60 230 loadbang;
#X msg 60 260 50;
#X msg 90 260 200;
#X obj 30 320 makenote;
#X obj 30 350 noteout;
#X msg 120 260 4;
#X connect 0 0 2 0;
#X connect 0 0 4 0;
#X connect 1 0 2 1;
#X connect 3 0 0 0;
#X connect 3 0 1 0;
#X connect 4 0 8 0;
#X connect 5 0 6 0;
#X connect 5 0 7 0;
#X connect 5 0 10 0;
#X connect 6 0 8 1;
#X connect 7 0 8 2;
#X connect 8 0 9 0;
#X connect 8 1 9 1;
#X connect 10 0 4 2;
