#N canvas 1259 154 988 876 12;
#X obj 190 130 metronome~ 120;
#X obj 250 250 select 3;
#X obj 250 279 bng 15 250 50 0 empty empty empty 17 7 0 10 #fcfcfc
#000000 #000000;
#X obj 320 279 bng 15 250 50 0 empty empty empty 17 7 0 10 #fcfcfc
#000000 #000000;
#X obj 320 250 select 0;
#X obj 620 450 noteout;
#X obj 612 376 makenote;
#X msg 600 240 60;
#X msg 630 260 100;
#X obj 330 400 notein;
#X floatatom 330 430 5 0 0 0 - - -, f 5;
#X floatatom 340 460 5 0 0 0 - - -, f 5;
#X floatatom 360 490 5 0 0 0 - - -, f 5;
#X msg 660 280 500;
#X obj 130 270 dac~;
#X connect 0 0 14 0;
#X connect 0 1 1 0;
#X connect 0 1 4 0;
#X connect 1 0 2 0;
#X connect 4 0 3 0;
#X connect 6 0 5 0;
#X connect 6 1 5 1;
#X connect 7 0 6 0;
#X connect 8 0 6 1;
#X connect 9 0 10 0;
#X connect 9 1 11 0;
#X connect 9 1 6 1;
#X connect 9 2 12 0;
#X connect 10 0 6 0;
#X connect 13 0 6 2;
