#N canvas 539 132 988 876 12;
#X obj 190 130 metronome~ 120;
#X obj 250 279 bng 15 250 50 0 empty empty empty 17 7 0 10 #fcfcfc
#000000 #000000;
#X obj 330 290 bng 15 250 50 0 empty empty empty 17 7 0 10 #fcfcfc
#000000 #000000;
#X obj 828 434 noteout;
#X obj 820 360 makenote;
#X msg 808 224 60;
#X msg 838 244 100;
#X obj 690 140 notein;
#X floatatom 690 170 5 0 0 0 - - -, f 5;
#X floatatom 700 200 5 0 0 0 - - -, f 5;
#X floatatom 720 230 5 0 0 0 - - -, f 5;
#X msg 868 264 500;
#X obj 100 260 output~;
#X obj 250 330 randnote;
#X obj 360 500 notename;
#X obj 360 600 print;
#X obj 360 550 symbol;
#X obj 250 540 pack i i;
#X symbolatom 510 550 5 0 0 0 - - -, f 5;
#X obj 250 250 select 0;
#X obj 320 250 select 2;
#X connect 0 0 12 0;
#X connect 0 1 19 0;
#X connect 0 1 20 0;
#X connect 1 0 13 0;
#X connect 2 0 16 0;
#X connect 4 0 3 0;
#X connect 4 1 3 1;
#X connect 5 0 4 0;
#X connect 6 0 4 1;
#X connect 7 0 8 0;
#X connect 7 1 9 0;
#X connect 7 1 4 1;
#X connect 7 2 10 0;
#X connect 8 0 4 0;
#X connect 11 0 4 2;
#X connect 13 0 14 0;
#X connect 13 0 17 0;
#X connect 13 1 14 1;
#X connect 13 1 17 1;
#X connect 14 0 16 1;
#X connect 16 0 15 0;
#X connect 16 0 18 0;
#X connect 17 0 15 0;
#X connect 19 0 1 0;
#X connect 20 0 2 0;
