#N canvas 393 178 988 876 12;
#X obj 250 279 bng 15 250 50 0 empty empty empty 17 7 0 10 #fcfcfc
#000000 #000000;
#X obj 320 280 bng 15 250 50 0 empty empty empty 17 7 0 10 #fcfcfc
#000000 #000000;
#X obj 648 604 noteout;
#X obj 640 530 makenote;
#X obj 100 260 output~;
#X obj 250 350 randnote;
#X obj 250 400 notename;
#X symbolatom 250 440 10 0 0 0 - - -, f 10;
#X obj 420 400 midipitch;
#X obj 420 450 i;
#X floatatom 330 440 5 0 0 0 - - -, f 5;
#X msg 480 350 3;
#X msg 440 350 0;
#X obj 190 130 metronome~ 80;
#X floatatom 660 440 5 0 100 0 - - -, f 5;
#X floatatom 330 480 5 0 0 0 - - -, f 5;
#X obj 330 410 - 36;
#X floatatom 180 400 5 0 0 0 - - -, f 5;
#X obj 320 250 select 0;
#X obj 250 250 select 2;
#X symbolatom 250 470 10 0 0 0 - - -, f 10;
#X obj 770 270 loadbang;
#X msg 770 300 50;
#X msg 810 300 800;
#X connect 0 0 5 0;
#X connect 1 0 9 0;
#X connect 3 0 2 0;
#X connect 3 1 2 1;
#X connect 5 0 17 0;
#X connect 5 0 8 0;
#X connect 5 0 6 0;
#X connect 6 0 7 0;
#X connect 6 1 20 0;
#X connect 8 0 9 1;
#X connect 8 0 15 0;
#X connect 8 0 16 0;
#X connect 9 0 3 0;
#X connect 11 0 8 2;
#X connect 12 0 8 1;
#X connect 13 0 4 0;
#X connect 13 1 18 0;
#X connect 13 1 19 0;
#X connect 14 0 3 1;
#X connect 16 0 10 0;
#X connect 18 0 1 0;
#X connect 19 0 0 0;
#X connect 21 0 22 0;
#X connect 21 0 23 0;
#X connect 22 0 14 0;
#X connect 23 0 3 2;
