#N struct drawing-notehead float x float y float visible;
#N canvas 1478 137 321 397 12;
#X obj 10 70 tgl 15 0 empty empty empty 17 7 0 10 #fcfcfc #000000 #000000
0 1;
#X obj 10 11 loadbang;
#X obj 10 100 gnotehead;
#X obj 120 100 gnotehead;
#X obj 10 40 t 0 1;
#X obj 120 70 tgl 15 0 empty empty empty 17 7 0 10 #fcfcfc #000000
#000000 1 1;
#X scalar drawing-notehead 120 210 0 \;;
#X connect 0 0 2 0;
#X connect 1 0 4 0;
#X connect 4 0 0 0;
#X connect 4 1 5 0;
#X connect 5 0 3 0;
#X coords 0 0 1 1 85 60 0;
