#N canvas 3082 498 450 300 12;
#X obj 120 120 interval;
#X msg 220 50 0;
#X msg 220 80 -1;
#X msg 220 20 1;
#X msg 220 109 -2;
#X obj 60 30 vsl 15 128 0 15 0 0 empty empty empty 0 -9 0 10 #fcfcfc
#000000 #000000 10950 1;
#X floatatom 120 80 5 0 0 0 - - -, f 5;
#X symbolatom 120 190 10 0 0 0 - - -, f 10;
#X obj 120 50 i;
#X obj 120 150 unpack symbol i i;
#X floatatom 200 190 5 0 0 0 - - -, f 5;
#X floatatom 240 190 5 0 0 0 - - -, f 5;
#X connect 0 0 9 0;
#X connect 1 0 0 1;
#X connect 2 0 0 1;
#X connect 3 0 0 1;
#X connect 4 0 0 1;
#X connect 5 0 8 0;
#X connect 6 0 0 0;
#X connect 8 0 6 0;
#X connect 9 0 7 0;
#X connect 9 1 10 0;
#X connect 9 2 11 0;
