#N canvas 1026 443 450 300 12;
#X obj 120 120 interval;
#X msg 220 50 0;
#X msg 220 80 -1;
#X msg 220 20 1;
#X msg 220 109 -2;
#X obj 60 30 vsl 15 128 0 15 0 0 empty empty empty 0 -9 0 10 #fcfcfc
#000000 #000000 0 1;
#X floatatom 120 80 5 0 0 0 - - -, f 5;
#X symbolatom 120 160 10 0 0 0 - - -, f 10;
#X obj 120 50 i;
#X connect 0 0 7 0;
#X connect 1 0 0 1;
#X connect 2 0 0 1;
#X connect 3 0 0 1;
#X connect 4 0 0 1;
#X connect 5 0 8 0;
#X connect 6 0 0 0;
#X connect 8 0 6 0;
