#N canvas 796 300 450 325 12;
#X obj 90 190 pitchname;
#X symbolatom 90 230 10 0 0 0 - - -, f 10;
#X floatatom 90 50 5 0 0 0 - - -, f 5;
#X floatatom 140 50 5 0 0 0 - - -, f 5;
#X obj 210 180 pitch;
#X obj 210 209 pitchname;
#X symbolatom 210 238 10 0 0 0 - - -, f 10;
#X obj 90 150 pitch;
#X obj 190 130 bng 15 250 50 0 empty empty empty 17 7 0 10 #fcfcfc
#000000 #000000;
#X connect 0 0 1 0;
#X connect 2 0 7 0;
#X connect 3 0 7 1;
#X connect 4 0 5 0;
#X connect 5 0 6 0;
#X connect 7 0 0 0;
#X connect 7 0 4 1;
#X connect 8 0 4 0;
