#N canvas 735 195 1153 658 12;
#X msg 20 20 0;
#X msg 50 20 1;
#X msg 80 20 2;
#X msg 110 20 3;
#X msg 140 20 4;
#X msg 170 20 5;
#X msg 200 20 6;
#X msg 130 80 0;
#X msg 130 60 1;
#X msg 130 100 -1;
#X floatatom 310 230 5 0 0 0 - - -, f 5;
#X obj 40 130 print;
#X floatatom 20 230 5 0 0 0 - - -, f 5;
#X floatatom 60 230 5 0 0 0 - - -, f 5;
#X obj 310 170 route pitch-class;
#X obj 20 170 route pitch;
#X floatatom 100 230 5 0 0 0 - - -, f 5;
#X floatatom 350 230 5 0 0 0 - - -, f 5;
#X obj 110 180 bng 15 250 50 0 empty empty empty 17 7 0 10 #fcfcfc
#000000 #000000;
#X obj 440 180 bng 15 250 50 0 empty empty empty 17 7 0 10 #fcfcfc
#000000 #000000;
#X obj 20 200 unpack f f f;
#X obj 310 200 unpack f f;
#X obj 20 60 pitch class;
#X msg 180 330 pitch-class 1 2;
#X msg 190 360 pitch_class 1 2;
#X obj 190 490 print;
#X msg 170 300 pitch 7 8 9;
#X msg 360 340 pitch-class 1 2;
#X msg 370 370 pitch_class 1 2;
#X msg 350 310 pitch 7 8 9;
#X obj 120 430 bng 15 250 50 0 empty empty empty 17 7 0 10 #fcfcfc
#000000 #000000;
#X obj 190 440 pitch;
#X connect 0 0 22 0;
#X connect 1 0 22 0;
#X connect 2 0 22 0;
#X connect 3 0 22 0;
#X connect 4 0 22 0;
#X connect 5 0 22 0;
#X connect 6 0 22 0;
#X connect 7 0 22 1;
#X connect 8 0 22 1;
#X connect 9 0 22 1;
#X connect 14 0 19 0;
#X connect 14 0 21 0;
#X connect 15 0 18 0;
#X connect 15 0 20 0;
#X connect 20 0 12 0;
#X connect 20 1 13 0;
#X connect 20 2 16 0;
#X connect 21 0 10 0;
#X connect 21 1 17 0;
#X connect 22 0 11 0;
#X connect 22 0 14 0;
#X connect 22 0 15 0;
#X connect 23 0 31 0;
#X connect 24 0 31 0;
#X connect 26 0 31 0;
#X connect 27 0 31 1;
#X connect 28 0 31 1;
#X connect 29 0 31 1;
#X connect 30 0 31 0;
#X connect 31 0 25 0;
