#N canvas 522 180 360 298 12;
#X msg 20 40 0;
#X msg 50 40 1;
#X msg 80 40 2;
#X msg 110 40 3;
#X msg 140 40 4;
#X msg 170 40 5;
#X msg 200 40 6;
#X msg 230 80 0;
#X msg 230 60 1;
#X msg 230 100 -1;
#X obj 110 130 pitch;
#X obj 100 100 any;
#X obj 20 100 any;
#X obj 110 210 print;
#X obj 20 210 print;
#X obj 20 130 pitch class;
#X obj 300 50 vsl 15 128 1 10 0 0 empty empty empty 0 -9 0 10 #fcfcfc
#000000 #000000 0 1;
#X msg 10 10 random;
#X connect 0 0 12 0;
#X connect 1 0 12 0;
#X connect 2 0 12 0;
#X connect 3 0 12 0;
#X connect 4 0 12 0;
#X connect 5 0 12 0;
#X connect 6 0 12 0;
#X connect 7 0 11 0;
#X connect 8 0 11 0;
#X connect 9 0 11 0;
#X connect 10 0 13 0;
#X connect 11 0 10 1;
#X connect 11 0 15 1;
#X connect 12 0 10 0;
#X connect 12 0 15 0;
#X connect 15 0 14 0;
#X connect 16 0 10 2;
#X connect 17 0 12 0;
