#N canvas 500 220 450 300 12;
#X obj 100 80 pitch;
#X obj 150 80 interval;
#X msg 100 40 random;
#X msg 160 40 random;
#X obj 100 120 name;
#X symbolatom 100 160 10 0 0 0 - - -, f 10;
#X connect 0 0 4 0;
#X connect 2 0 0 0;
#X connect 3 0 1 0;
#X connect 4 0 5 0;
