#N canvas 500 220 450 300 12;
#X obj 200 80 interval;
#X msg 100 40 random;
#X msg 200 40 random;
#X obj 100 120 name;
#X symbolatom 100 160 10 0 0 0 - - -, f 10;
#X obj 100 80 pitch class;
#X obj 200 120 print;
#X connect 0 0 6 0;
#X connect 1 0 5 0;
#X connect 2 0 0 0;
#X connect 3 0 4 0;
#X connect 5 0 3 0;
